<?xml version="1.0" encoding="UTF-8" standalone="no"?>
<!-- Created with Inkscape (http://www.inkscape.org/) -->

<svg
   xmlns:dc="http://purl.org/dc/elements/1.1/"
   xmlns:cc="http://creativecommons.org/ns#"
   xmlns:rdf="http://www.w3.org/1999/02/22-rdf-syntax-ns#"
   xmlns:svg="http://www.w3.org/2000/svg"
   xmlns="http://www.w3.org/2000/svg"
   xmlns:xlink="http://www.w3.org/1999/xlink"
   xmlns:sodipodi="http://sodipodi.sourceforge.net/DTD/sodipodi-0.dtd"
   xmlns:inkscape="http://www.inkscape.org/namespaces/inkscape"
   id="svg7384"
   sodipodi:docname="folder-symbolic.svg"
   version="1.1"
   inkscape:version="0.48.3.1 r9886"
   height="16"
   width="18">
  <metadata
     id="metadata90">
    <rdf:RDF>
      <cc:Work
         rdf:about="">
        <dc:format>image/svg+xml</dc:format>
        <dc:type
           rdf:resource="http://purl.org/dc/dcmitype/StillImage" />
        <dc:title>Gnome Symbolic Icon Theme</dc:title>
      </cc:Work>
    </rdf:RDF>
  </metadata>
  <sodipodi:namedview
     inkscape:cy="4.5710372"
     pagecolor="#555753"
     borderopacity="1"
     showborder="false"
     inkscape:bbox-paths="false"
     guidetolerance="10"
     inkscape:window-width="1022"
     showguides="true"
     inkscape:object-nodes="true"
     inkscape:snap-bbox="true"
     inkscape:pageshadow="2"
     inkscape:guide-bbox="true"
     inkscape:snap-nodes="true"
     bordercolor="#666666"
     objecttolerance="10"
     id="namedview88"
     showgrid="false"
     inkscape:window-maximized="0"
     inkscape:window-x="0"
     inkscape:snap-global="true"
     inkscape:window-y="27"
     gridtolerance="10"
     inkscape:window-height="540"
     inkscape:snap-to-guides="true"
     inkscape:current-layer="layer13"
     inkscape:zoom="22.627417"
     inkscape:cx="4.7251059"
     inkscape:snap-grids="true"
     inkscape:pageopacity="1">
    <inkscape:grid
       spacingx="1px"
       spacingy="1px"
       id="grid4866"
       empspacing="2"
       enabled="true"
       type="xygrid"
       snapvisiblegridlinesonly="true"
       visible="true" />
  </sodipodi:namedview>
  <title
     id="title9167">Gnome Symbolic Icon Theme</title>
  <defs
     id="defs7386">
    <linearGradient
       gradientUnits="userSpaceOnUse"
       y2="520.86047"
       x2="724.30334"
       y1="531.27771"
       x1="724.24481"
       id="linearGradient3844"
       xlink:href="#linearGradient3838"
       inkscape:collect="always" />
    <linearGradient
       id="linearGradient3838"
       inkscape:collect="always">
      <stop
         id="stop3840"
         offset="0"
         style="stop-color:#00ff11;stop-opacity:1;" />
      <stop
         id="stop3842"
         offset="1"
         style="stop-color:#00ff11;stop-opacity:0;" />
    </linearGradient>
    <linearGradient
       inkscape:collect="always"
       xlink:href="#linearGradient3838"
       id="linearGradient3083"
       gradientUnits="userSpaceOnUse"
       x1="724.24481"
       y1="531.27771"
       x2="724.30334"
       y2="520.86047"
       gradientTransform="translate(-282.28751,-332.0529)" />
    <linearGradient
       inkscape:collect="always"
       xlink:href="#linearGradient3838"
       id="linearGradient3096"
       gradientUnits="userSpaceOnUse"
       gradientTransform="translate(-282.28751,-332.0529)"
       x1="724.24481"
       y1="531.27771"
       x2="724.30334"
       y2="520.86047" />
  </defs>
  <g
     inkscape:label="status"
     transform="translate(-442,-176)"
     inkscape:groupmode="layer"
     id="layer9"
     style="display:inline" />
  <g
     inkscape:label="devices"
     transform="translate(-442,-176)"
     inkscape:groupmode="layer"
     id="layer10" />
  <g
     inkscape:label="apps"
     transform="translate(-442,-176)"
     inkscape:groupmode="layer"
     id="layer11" />
  <g
     inkscape:label="actions"
     transform="translate(-442,-176)"
     inkscape:groupmode="layer"
     id="layer12" />
  <g
     inkscape:label="places"
     transform="translate(-442,-176)"
     inkscape:groupmode="layer"
     id="layer13">
    <g
       id="g3087"
       transform="matrix(0.27410784,0,0,0.27410784,336.55598,136.57883)">
      <path
         inkscape:connector-curvature="0"
         id="path2996"
         d="m 385.00178,179.25 0,-24.5 24.5,0 24.5,0 0,24.5 0,24.5 -24.5,0 -24.5,0 0,-24.5 z m 46,12.12244 c 0,-6.28835 -0.38036,-8.69322 -1.52523,-9.64338 -1.35872,-1.12764 -1.33143,-1.48026 0.25,-3.23013 1.32241,-1.46326 1.76992,-3.62148 1.75442,-8.4611 -0.0188,-5.85436 -0.29621,-6.73369 -2.80577,-8.89232 -2.72628,-2.34504 -3.18406,-2.39551 -21.72918,-2.39551 l -18.94424,0 0,20 0,20 5.5,0 5.5,0 0,-6.53498 0,-6.53499 10.25,0.28499 10.25,0.28498 0.27738,5.5 c 0.39644,7.86062 0.50431,8 6.19124,8 l 5.03138,0 0,-8.37756 z m -32,-19.12244 0,-3.5 10.5,0 10.5,0 0,3.5 0,3.5 -10.5,0 -10.5,0 0,-3.5 z"
         style="fill:#ff0000;fill-opacity:1;stroke:#030000;stroke-opacity:1" />
      <path
         inkscape:connector-curvature="0"
         id="path3817"
         d="m 441.10275,199.56911 c -0.24307,-0.0511 -0.7078,-0.22141 -1.03275,-0.37838 -0.99874,-0.48246 -1.81165,-1.4066 -2.19788,-2.49864 -0.23485,-0.664 -0.27716,-1.71494 -0.0976,-2.42489 0.16836,-0.66577 0.46087,-1.25543 0.86703,-1.74784 0.18064,-0.21901 0.36085,-0.45875 0.40047,-0.53277 0.0471,-0.088 0.072,-0.57334 0.072,-1.40142 l 0,-1.26684 2.89877,0 2.89876,0 0.0212,1.35444 0.0212,1.35445 0.22772,0.2397 c 1.38577,1.45869 1.58682,3.76349 0.47427,5.43701 -0.98568,1.48267 -2.81316,2.23128 -4.5532,1.86518 z"
         style="fill:url(#linearGradient3096);fill-opacity:1;stroke:none" />
      <g
         transform="translate(-287.0018,-329.48147)"
         id="g3790">
        <path
           sodipodi:type="arc"
           style="fill:none;stroke:#030000;stroke-width:1;stroke-linecap:round;stroke-linejoin:round;stroke-miterlimit:4;stroke-opacity:1;stroke-dasharray:none"
           id="path3766"
           sodipodi:cx="729.01788"
           sodipodi:cy="524.77289"
           sodipodi:rx="4.9107141"
           sodipodi:ry="4.9107141"
           d="m 733.9286,524.77289 c 0,2.71211 -2.1986,4.91071 -4.91072,4.91071 -2.71211,0 -4.91071,-2.1986 -4.91071,-4.91071 0,-2.71211 2.1986,-4.91072 4.91071,-4.91072 0.029,0 0.058,2.6e-4 0.087,7.8e-4"
           sodipodi:start="0"
           sodipodi:end="4.730112"
           transform="matrix(0.70447325,-0.70973054,0.70973054,0.70447325,-157.00306,672.49068)"
           sodipodi:open="true" />
        <path
           style="fill:none;stroke:#000000;stroke-width:1;stroke-linecap:butt;stroke-linejoin:miter;stroke-miterlimit:4;stroke-opacity:1;stroke-dasharray:none"
           d="m 725.58036,521.24611 0,-33.00102"
           id="path3768"
           inkscape:connector-curvature="0" />
        <path
           style="fill:none;stroke:#000000;stroke-width:1;stroke-linecap:butt;stroke-linejoin:miter;stroke-miterlimit:4;stroke-opacity:1;stroke-dasharray:none"
           d="m 732.44181,521.24618 0,-33.00102"
           id="path3768-6"
           inkscape:connector-curvature="0" />
        <path
           style="fill:none;stroke:#000000;stroke-width:1px;stroke-linecap:butt;stroke-linejoin:miter;stroke-opacity:1"
           d="m 725.35267,488.66549 c 2.73771,-1.50161 5.83543,-1.07471 7.3236,0.0316"
           id="path3788"
           inkscape:connector-curvature="0"
           sodipodi:nodetypes="cc" />
      </g>
    </g>
    <path
       style="fill:#ffffff;fill-opacity:1;stroke:none"
       d="m 10.280033,15.101214 c -0.3537364,-0.123947 -0.4146263,-0.388567 -0.5155132,-2.24036 -0.040389,-0.741357 -0.079416,-1.35456 -0.086726,-1.362673 -0.00968,-0.01075 -5.2301725,-0.174917 -5.8211037,-0.183058 -0.072401,-9.97e-4 -0.07734,0.113223 -0.07734,1.788799 l 0,1.789864 -1.3479223,0 -1.3479223,0 0,-5.3253979 0,-5.325398 3.9222329,9.803e-4 c 5.2096311,0.0013 6.0140421,0.042064 6.5462371,0.3317213 0.30943,0.1684128 0.762869,0.5949421 0.897192,0.8439467 0.06475,0.1200334 0.137708,0.3562386 0.164722,0.533293 0.06234,0.4086064 0.06278,1.9816344 6.76e-4,2.4281348 -0.07124,0.5121777 -0.152475,0.7074311 -0.464552,1.1165401 -0.363421,0.4764167 -0.370413,0.5700847 -0.06752,0.9045487 0.390967,0.43172 0.447304,0.831036 0.447304,3.170488 l 0,1.586308 -1.049612,-0.0025 c -0.693488,-0.0016 -1.100688,-0.02039 -1.200152,-0.05524 l 0,-2e-6 z M 9.8236627,7.7895726 9.83547,6.6736697 l -3.0280597,0 -3.0280597,0 0,1.1272581 0,1.1272582 3.0162523,-0.011355 3.0162524,-0.011355 0.011807,-1.1159029 z"
       id="path3098"
       inkscape:connector-curvature="0"
       transform="translate(442,176)" />
  </g>
  <g
     inkscape:label="mimetypes"
     transform="translate(-442,-176)"
     inkscape:groupmode="layer"
     id="layer14" />
  <g
     inkscape:label="emblems"
     transform="translate(-442,-176)"
     inkscape:groupmode="layer"
     id="layer15"
     style="display:inline" />
</svg>
